<?xml version="1.0" encoding="utf-8"?>
<!-- Generator: Adobe Illustrator 22.1.0, SVG Export Plug-In . SVG Version: 6.00 Build 0)  -->
<svg version="1.1" xmlns="http://www.w3.org/2000/svg" xmlns:xlink="http://www.w3.org/1999/xlink" x="0px" y="0px"
	 viewBox="0 0 466.5 349.5" style="enable-background:new 0 0 466.5 349.5;" xml:space="preserve">
<style type="text/css">
	.st0{display:none;}
	.st1{display:inline;}
	.st2{fill:#FFFFFF;}
	.st3{clip-path:url(#SVGID_2_);}
	.st4{clip-path:url(#SVGID_4_);fill:#3DA936;}
	.st5{clip-path:url(#SVGID_4_);fill:#3CA836;}
	.st6{clip-path:url(#SVGID_4_);fill:#3BA736;}
	.st7{clip-path:url(#SVGID_4_);fill:#3AA636;}
	.st8{clip-path:url(#SVGID_4_);fill:#39A536;}
	.st9{clip-path:url(#SVGID_4_);fill:#38A436;}
	.st10{clip-path:url(#SVGID_4_);fill:#37A336;}
	.st11{clip-path:url(#SVGID_4_);fill:#37A236;}
	.st12{clip-path:url(#SVGID_4_);fill:#36A136;}
	.st13{clip-path:url(#SVGID_4_);fill:#35A036;}
	.st14{clip-path:url(#SVGID_4_);fill:#349F36;}
	.st15{clip-path:url(#SVGID_4_);fill:#339D36;}
	.st16{clip-path:url(#SVGID_4_);fill:#329C36;}
	.st17{clip-path:url(#SVGID_4_);fill:#319B36;}
	.st18{clip-path:url(#SVGID_4_);fill:#309A36;}
	.st19{clip-path:url(#SVGID_4_);fill:#2F9936;}
	.st20{clip-path:url(#SVGID_4_);fill:#2E9835;}
	.st21{clip-path:url(#SVGID_4_);fill:#2D9735;}
	.st22{clip-path:url(#SVGID_4_);fill:#2C9635;}
	.st23{clip-path:url(#SVGID_4_);fill:#2B9535;}
	.st24{clip-path:url(#SVGID_4_);fill:#2B9435;}
	.st25{clip-path:url(#SVGID_4_);fill:#2A9335;}
	.st26{clip-path:url(#SVGID_4_);fill:#299235;}
	.st27{clip-path:url(#SVGID_4_);fill:#289135;}
	.st28{clip-path:url(#SVGID_4_);fill:#279035;}
	.st29{clip-path:url(#SVGID_4_);fill:#268F35;}
	.st30{clip-path:url(#SVGID_4_);fill:#258E35;}
	.st31{clip-path:url(#SVGID_4_);fill:#248D35;}
	.st32{clip-path:url(#SVGID_4_);fill:#238C35;}
	.st33{clip-path:url(#SVGID_4_);fill:#228B35;}
	.st34{clip-path:url(#SVGID_4_);fill:#218A35;}
	.st35{clip-path:url(#SVGID_4_);fill:#218935;}
	.st36{clip-path:url(#SVGID_4_);fill:#208835;}
	.st37{clip-path:url(#SVGID_4_);fill:#1F8735;}
	.st38{clip-path:url(#SVGID_4_);fill:#1E8635;}
	.st39{clip-path:url(#SVGID_4_);fill:#1D8535;}
	.st40{clip-path:url(#SVGID_4_);fill:#1C8435;}
	.st41{clip-path:url(#SVGID_4_);fill:#1B8335;}
	.st42{clip-path:url(#SVGID_4_);fill:#1A8235;}
	.st43{clip-path:url(#SVGID_4_);fill:#198135;}
	.st44{clip-path:url(#SVGID_4_);fill:#188035;}
	.st45{clip-path:url(#SVGID_4_);fill:#187E35;}
	.st46{clip-path:url(#SVGID_4_);fill:#177D35;}
	.st47{clip-path:url(#SVGID_4_);fill:#167C35;}
	.st48{clip-path:url(#SVGID_4_);fill:#157B35;}
	.st49{clip-path:url(#SVGID_4_);fill:#147A35;}
	.st50{clip-path:url(#SVGID_4_);fill:#137935;}
	.st51{clip-path:url(#SVGID_4_);fill:#127835;}
	.st52{clip-path:url(#SVGID_4_);fill:#117735;}
	.st53{clip-path:url(#SVGID_4_);fill:#107634;}
	.st54{clip-path:url(#SVGID_4_);fill:#107534;}
	.st55{clip-path:url(#SVGID_4_);fill:#0F7434;}
	.st56{clip-path:url(#SVGID_4_);fill:#0E7334;}
	.st57{clip-path:url(#SVGID_4_);fill:#0D7234;}
	.st58{clip-path:url(#SVGID_4_);fill:#0C7134;}
	.st59{clip-path:url(#SVGID_4_);fill:#0B7034;}
	.st60{clip-path:url(#SVGID_4_);fill:#0A6F34;}
	.st61{clip-path:url(#SVGID_4_);fill:#096E34;}
	.st62{clip-path:url(#SVGID_4_);fill:#086D34;}
	.st63{clip-path:url(#SVGID_4_);fill:#076C34;}
	.st64{clip-path:url(#SVGID_4_);fill:#066B34;}
	.st65{clip-path:url(#SVGID_4_);fill:#056A34;}
	.st66{clip-path:url(#SVGID_4_);fill:#046934;}
	.st67{clip-path:url(#SVGID_4_);fill:#046834;}
	.st68{clip-path:url(#SVGID_4_);fill:#036734;}
	.st69{clip-path:url(#SVGID_4_);fill:#026634;}
	.st70{clip-path:url(#SVGID_4_);fill:#056934;}
	.st71{clip-path:url(#SVGID_4_);fill:#086C34;}
	.st72{clip-path:url(#SVGID_4_);fill:#096D34;}
	.st73{clip-path:url(#SVGID_4_);fill:#0D7334;}
	.st74{clip-path:url(#SVGID_4_);fill:#0E7434;}
	.st75{clip-path:url(#SVGID_4_);fill:#0F7534;}
	.st76{clip-path:url(#SVGID_4_);fill:#137A35;}
	.st77{clip-path:url(#SVGID_4_);fill:#147B35;}
	.st78{clip-path:url(#SVGID_4_);fill:#157C35;}
	.st79{clip-path:url(#SVGID_4_);fill:#167D35;}
	.st80{clip-path:url(#SVGID_4_);fill:#177E35;}
	.st81{clip-path:url(#SVGID_4_);fill:#187F35;}
	.st82{clip-path:url(#SVGID_4_);fill:#198035;}
	.st83{clip-path:url(#SVGID_4_);fill:#1A8135;}
	.st84{clip-path:url(#SVGID_4_);fill:#1B8235;}
	.st85{clip-path:url(#SVGID_4_);fill:#1C8335;}
	.st86{clip-path:url(#SVGID_4_);fill:#228A35;}
	.st87{clip-path:url(#SVGID_4_);fill:#238B35;}
	.st88{clip-path:url(#SVGID_4_);fill:#248C35;}
	.st89{clip-path:url(#SVGID_4_);fill:#2E9836;}
	.st90{clip-path:url(#SVGID_4_);fill:#309B36;}
	.st91{clip-path:url(#SVGID_4_);fill:#319C36;}
	.st92{clip-path:url(#SVGID_4_);fill:#329D36;}
	.st93{clip-path:url(#SVGID_4_);fill:#339E36;}
	.st94{clip-path:url(#SVGID_4_);fill:#38A336;}
	.st95{clip-path:url(#SVGID_6_);}
	.st96{clip-path:url(#SVGID_8_);fill:#3DA936;}
	.st97{clip-path:url(#SVGID_8_);fill:#3CA836;}
	.st98{clip-path:url(#SVGID_8_);fill:#3BA736;}
	.st99{clip-path:url(#SVGID_8_);fill:#3AA636;}
	.st100{clip-path:url(#SVGID_8_);fill:#39A536;}
	.st101{clip-path:url(#SVGID_8_);fill:#38A436;}
	.st102{clip-path:url(#SVGID_8_);fill:#37A336;}
	.st103{clip-path:url(#SVGID_8_);fill:#37A236;}
	.st104{clip-path:url(#SVGID_8_);fill:#36A136;}
	.st105{clip-path:url(#SVGID_8_);fill:#35A036;}
	.st106{clip-path:url(#SVGID_8_);fill:#349F36;}
	.st107{clip-path:url(#SVGID_8_);fill:#339D36;}
	.st108{clip-path:url(#SVGID_8_);fill:#329C36;}
	.st109{clip-path:url(#SVGID_8_);fill:#319B36;}
	.st110{clip-path:url(#SVGID_8_);fill:#309A36;}
	.st111{clip-path:url(#SVGID_8_);fill:#2F9936;}
	.st112{clip-path:url(#SVGID_8_);fill:#2E9835;}
	.st113{clip-path:url(#SVGID_8_);fill:#2D9735;}
	.st114{clip-path:url(#SVGID_8_);fill:#2C9635;}
	.st115{clip-path:url(#SVGID_8_);fill:#2B9535;}
	.st116{clip-path:url(#SVGID_8_);fill:#2B9435;}
	.st117{clip-path:url(#SVGID_8_);fill:#2A9335;}
	.st118{clip-path:url(#SVGID_8_);fill:#299235;}
	.st119{clip-path:url(#SVGID_8_);fill:#289135;}
	.st120{clip-path:url(#SVGID_8_);fill:#279035;}
	.st121{clip-path:url(#SVGID_8_);fill:#268F35;}
	.st122{clip-path:url(#SVGID_8_);fill:#258E35;}
	.st123{clip-path:url(#SVGID_8_);fill:#248D35;}
	.st124{clip-path:url(#SVGID_8_);fill:#238C35;}
	.st125{clip-path:url(#SVGID_8_);fill:#228B35;}
	.st126{clip-path:url(#SVGID_8_);fill:#218A35;}
	.st127{clip-path:url(#SVGID_8_);fill:#218935;}
	.st128{clip-path:url(#SVGID_8_);fill:#208835;}
	.st129{clip-path:url(#SVGID_8_);fill:#1F8735;}
	.st130{clip-path:url(#SVGID_8_);fill:#1E8635;}
	.st131{clip-path:url(#SVGID_8_);fill:#1D8535;}
	.st132{clip-path:url(#SVGID_8_);fill:#1C8435;}
	.st133{clip-path:url(#SVGID_8_);fill:#1B8335;}
	.st134{clip-path:url(#SVGID_8_);fill:#1A8235;}
	.st135{clip-path:url(#SVGID_8_);fill:#198135;}
	.st136{clip-path:url(#SVGID_8_);fill:#188035;}
	.st137{clip-path:url(#SVGID_8_);fill:#187E35;}
	.st138{clip-path:url(#SVGID_8_);fill:#177D35;}
	.st139{clip-path:url(#SVGID_8_);fill:#167C35;}
	.st140{clip-path:url(#SVGID_8_);fill:#157B35;}
	.st141{clip-path:url(#SVGID_8_);fill:#147A35;}
	.st142{clip-path:url(#SVGID_8_);fill:#137935;}
	.st143{clip-path:url(#SVGID_8_);fill:#127835;}
	.st144{clip-path:url(#SVGID_8_);fill:#117735;}
	.st145{clip-path:url(#SVGID_8_);fill:#107634;}
	.st146{clip-path:url(#SVGID_8_);fill:#107534;}
	.st147{clip-path:url(#SVGID_8_);fill:#0F7434;}
	.st148{clip-path:url(#SVGID_8_);fill:#0E7334;}
	.st149{clip-path:url(#SVGID_8_);fill:#0D7234;}
	.st150{clip-path:url(#SVGID_8_);fill:#0C7134;}
	.st151{clip-path:url(#SVGID_8_);fill:#0B7034;}
	.st152{clip-path:url(#SVGID_8_);fill:#0A6F34;}
	.st153{clip-path:url(#SVGID_8_);fill:#096E34;}
	.st154{clip-path:url(#SVGID_8_);fill:#086D34;}
	.st155{clip-path:url(#SVGID_8_);fill:#076C34;}
	.st156{clip-path:url(#SVGID_8_);fill:#066B34;}
	.st157{clip-path:url(#SVGID_8_);fill:#056A34;}
	.st158{clip-path:url(#SVGID_8_);fill:#046934;}
	.st159{clip-path:url(#SVGID_8_);fill:#046834;}
	.st160{clip-path:url(#SVGID_8_);fill:#036734;}
	.st161{clip-path:url(#SVGID_8_);fill:#026634;}
	.st162{clip-path:url(#SVGID_8_);fill:#056934;}
	.st163{clip-path:url(#SVGID_8_);fill:#086C34;}
	.st164{clip-path:url(#SVGID_8_);fill:#096D34;}
	.st165{clip-path:url(#SVGID_8_);fill:#0D7334;}
	.st166{clip-path:url(#SVGID_8_);fill:#0E7434;}
	.st167{clip-path:url(#SVGID_8_);fill:#0F7534;}
	.st168{clip-path:url(#SVGID_8_);fill:#137A35;}
	.st169{clip-path:url(#SVGID_8_);fill:#147B35;}
	.st170{clip-path:url(#SVGID_8_);fill:#157C35;}
	.st171{clip-path:url(#SVGID_8_);fill:#167D35;}
	.st172{clip-path:url(#SVGID_8_);fill:#177E35;}
	.st173{clip-path:url(#SVGID_8_);fill:#187F35;}
	.st174{clip-path:url(#SVGID_8_);fill:#198035;}
	.st175{clip-path:url(#SVGID_8_);fill:#1A8135;}
	.st176{clip-path:url(#SVGID_8_);fill:#1B8235;}
	.st177{clip-path:url(#SVGID_8_);fill:#1C8335;}
	.st178{clip-path:url(#SVGID_8_);fill:#228A35;}
	.st179{clip-path:url(#SVGID_8_);fill:#238B35;}
	.st180{clip-path:url(#SVGID_8_);fill:#248C35;}
	.st181{clip-path:url(#SVGID_8_);fill:#2E9836;}
	.st182{clip-path:url(#SVGID_8_);fill:#309B36;}
	.st183{clip-path:url(#SVGID_8_);fill:#319C36;}
	.st184{clip-path:url(#SVGID_8_);fill:#329D36;}
	.st185{clip-path:url(#SVGID_8_);fill:#339E36;}
	.st186{clip-path:url(#SVGID_8_);fill:#38A336;}
</style>
<g id="Layer_2" class="st0">
	<rect x="-246.5" y="-236" class="st1" width="1044" height="924"/>
</g>
<g id="OBJECTS">
	<g>
		<g>
			<path class="st2" d="M3.2,267.6h18.7l20.2,54.3l20.2-54.3h18.3l-31.2,77.7h-15L3.2,267.6z"/>
			<path class="st2" d="M93.2,267.6h17v77.1h-17V267.6z"/>
			<path class="st2" d="M122.9,267.6h18.7l20.2,54.3l20.2-54.3h18.3L169,345.2h-15L122.9,267.6z"/>
			<path class="st2" d="M212.9,267.6h17v77.1h-17V267.6z"/>
			<path class="st2" d="M245.7,306.1c0-21.9,17.1-39.9,40.4-39.9c13.9,0,22.3,3.7,30.3,10.6l-10.7,12.9c-6-5-11.2-7.8-20.2-7.8
				c-12.3,0-22.1,10.9-22.1,24.2c0,14.1,9.7,24.5,23.4,24.5c6.2,0,11.7-1.5,16-4.6v-11h-17.1v-14.7h33.5v33.5
				c-7.9,6.7-18.8,12.2-32.9,12.2C262.3,346,245.7,329.1,245.7,306.1z"/>
			<path class="st2" d="M335.5,267.6h17v61.7H391v15.4h-55.4V267.6z"/>
			<path class="st2" d="M403.7,267.6h58.2v15.1h-41.3v15.6H457v15.1h-36.4v16.2h41.9v15.1h-58.7V267.6z"/>
		</g>
		<g>
			<defs>
				<path id="SVGID_1_" d="M329.7,3.5c-19.8,0.1-39.7,0.1-59.5,0.2c-0.8,0-1.1,0.2-1.4,1c-0.7,2-1.6,3.9-2.4,5.9
					C263,19,259.5,27.4,256,35.9c-3.4,8.4-6.8,16.8-10.2,25.2c-2.8,6.8-5.5,13.7-8.3,20.5c-3.4,8.3-6.8,16.7-10.2,25
					c-3.4,8.4-6.8,16.8-10.2,25.2c-2,4.8-3.9,9.7-5.9,14.5c-3.3,8.2-6.6,16.5-9.9,24.7c-1.6,4-3.2,8-4.8,12
					c-0.6,1.6-0.5,1.8,1.1,1.8c4.2,0,8.4-0.1,12.6-0.1c15.4,0,30.8,0,46.3,0.1c1.2,0,1.5-0.4,1.9-1.4c2.3-5.9,4.8-11.7,7.2-17.6
					c3-7.4,6-14.8,9-22.1c2.6-6.4,5.2-12.9,7.8-19.3c3.3-8,6.5-16.1,9.7-24.1c2.4-5.8,4.7-11.6,7.1-17.4c2.2-5.5,4.4-10.9,6.6-16.4
					c2.2-5.5,4.4-10.9,6.6-16.4c2.8-6.8,5.5-13.7,8.3-20.5c2.7-6.6,5.4-13.2,8.1-19.8c0.8-1.9,1.5-3.8,2.4-6c-0.5,0-0.8,0-1.1,0
					C329.9,3.5,329.8,3.5,329.7,3.5"/>
			</defs>
			<clipPath id="SVGID_2_">
				<use xlink:href="#SVGID_1_"  style="overflow:visible;"/>
			</clipPath>
			<g class="st3">
				<g>
					<defs>
						<rect id="SVGID_3_" x="195.9" y="3.5" width="135.3" height="181.2"/>
					</defs>
					<clipPath id="SVGID_4_">
						<use xlink:href="#SVGID_3_"  style="overflow:visible;"/>
					</clipPath>
					<rect x="293.3" y="3.5" class="st4" width="37.9" height="181.2"/>
					<rect x="292.5" y="3.5" class="st4" width="0.8" height="181.2"/>
					<rect x="291.7" y="3.5" class="st5" width="0.8" height="181.2"/>
					<rect x="290.9" y="3.5" class="st6" width="0.8" height="181.2"/>
					<rect x="290.1" y="3.5" class="st7" width="0.8" height="181.2"/>
					<rect x="289.4" y="3.5" class="st8" width="0.8" height="181.2"/>
					<rect x="288.6" y="3.5" class="st9" width="0.8" height="181.2"/>
					<rect x="287.8" y="3.5" class="st10" width="0.8" height="181.2"/>
					<rect x="287" y="3.5" class="st11" width="0.8" height="181.2"/>
					<rect x="286.2" y="3.5" class="st12" width="0.8" height="181.2"/>
					<rect x="285.4" y="3.5" class="st13" width="0.8" height="181.2"/>
					<rect x="284.7" y="3.5" class="st14" width="0.8" height="181.2"/>
					<rect x="283.9" y="3.5" class="st15" width="0.8" height="181.2"/>
					<rect x="283.1" y="3.5" class="st16" width="0.8" height="181.2"/>
					<rect x="282.3" y="3.5" class="st17" width="0.8" height="181.2"/>
					<rect x="281.5" y="3.5" class="st18" width="0.8" height="181.2"/>
					<rect x="280.8" y="3.5" class="st19" width="0.8" height="181.2"/>
					<rect x="280" y="3.5" class="st20" width="0.8" height="181.2"/>
					<rect x="279.2" y="3.5" class="st21" width="0.8" height="181.2"/>
					<rect x="278.4" y="3.5" class="st22" width="0.8" height="181.2"/>
					<rect x="277.6" y="3.5" class="st23" width="0.8" height="181.2"/>
					<rect x="276.9" y="3.5" class="st24" width="0.8" height="181.2"/>
					<rect x="276.1" y="3.5" class="st25" width="0.8" height="181.2"/>
					<rect x="275.3" y="3.5" class="st26" width="0.8" height="181.2"/>
					<rect x="274.5" y="3.5" class="st27" width="0.8" height="181.2"/>
					<rect x="273.7" y="3.5" class="st28" width="0.8" height="181.2"/>
					<rect x="273" y="3.5" class="st29" width="0.8" height="181.2"/>
					<rect x="272.2" y="3.5" class="st30" width="0.8" height="181.2"/>
					<rect x="271.4" y="3.5" class="st31" width="0.8" height="181.2"/>
					<rect x="270.6" y="3.5" class="st32" width="0.8" height="181.2"/>
					<rect x="269.8" y="3.5" class="st33" width="0.8" height="181.2"/>
					<rect x="269" y="3.5" class="st34" width="0.8" height="181.2"/>
					<rect x="268.3" y="3.5" class="st35" width="0.8" height="181.2"/>
					<rect x="267.5" y="3.5" class="st36" width="0.8" height="181.2"/>
					<rect x="266.7" y="3.5" class="st37" width="0.8" height="181.2"/>
					<rect x="265.9" y="3.5" class="st38" width="0.8" height="181.2"/>
					<rect x="265.1" y="3.5" class="st39" width="0.8" height="181.2"/>
					<rect x="264.4" y="3.5" class="st40" width="0.8" height="181.2"/>
					<rect x="263.6" y="3.5" class="st41" width="0.8" height="181.2"/>
					<rect x="262.8" y="3.5" class="st42" width="0.8" height="181.2"/>
					<rect x="262" y="3.5" class="st43" width="0.8" height="181.2"/>
					<rect x="261.2" y="3.5" class="st44" width="0.8" height="181.2"/>
					<rect x="260.5" y="3.5" class="st45" width="0.8" height="181.2"/>
					<rect x="259.7" y="3.5" class="st46" width="0.8" height="181.2"/>
					<rect x="258.9" y="3.5" class="st47" width="0.8" height="181.2"/>
					<rect x="258.1" y="3.5" class="st48" width="0.8" height="181.2"/>
					<rect x="257.3" y="3.5" class="st49" width="0.8" height="181.2"/>
					<rect x="256.5" y="3.5" class="st50" width="0.8" height="181.2"/>
					<rect x="255.8" y="3.5" class="st51" width="0.8" height="181.2"/>
					<rect x="255" y="3.5" class="st52" width="0.8" height="181.2"/>
					<rect x="254.2" y="3.5" class="st53" width="0.8" height="181.2"/>
					<rect x="253.4" y="3.5" class="st54" width="0.8" height="181.2"/>
					<rect x="252.6" y="3.5" class="st55" width="0.8" height="181.2"/>
					<rect x="251.9" y="3.5" class="st56" width="0.8" height="181.2"/>
					<rect x="251.1" y="3.5" class="st57" width="0.8" height="181.2"/>
					<rect x="250.3" y="3.5" class="st58" width="0.8" height="181.2"/>
					<rect x="249.5" y="3.5" class="st59" width="0.8" height="181.2"/>
					<rect x="248.7" y="3.5" class="st60" width="0.8" height="181.2"/>
					<rect x="248" y="3.5" class="st61" width="0.8" height="181.2"/>
					<rect x="247.2" y="3.5" class="st61" width="0.8" height="181.2"/>
					<rect x="246.4" y="3.5" class="st62" width="0.8" height="181.2"/>
					<rect x="245.6" y="3.5" class="st63" width="0.8" height="181.2"/>
					<rect x="244.8" y="3.5" class="st64" width="0.8" height="181.2"/>
					<rect x="244" y="3.5" class="st65" width="0.8" height="181.2"/>
					<rect x="243.3" y="3.5" class="st66" width="0.8" height="181.2"/>
					<rect x="242.5" y="3.5" class="st67" width="0.8" height="181.2"/>
					<rect x="241.7" y="3.5" class="st68" width="0.8" height="181.2"/>
					<rect x="240.9" y="3.5" class="st69" width="0.8" height="181.2"/>
					<rect x="240.5" y="3.5" class="st69" width="0.4" height="181.2"/>
					<rect x="240" y="3.5" class="st68" width="0.4" height="181.2"/>
					<rect x="239.6" y="3.5" class="st68" width="0.4" height="181.2"/>
					<rect x="239.2" y="3.5" class="st67" width="0.4" height="181.2"/>
					<rect x="238.7" y="3.5" class="st70" width="0.4" height="181.2"/>
					<rect x="238.3" y="3.5" class="st65" width="0.4" height="181.2"/>
					<rect x="237.8" y="3.5" class="st64" width="0.4" height="181.2"/>
					<rect x="237.4" y="3.5" class="st63" width="0.4" height="181.2"/>
					<rect x="236.9" y="3.5" class="st71" width="0.4" height="181.2"/>
					<rect x="236.5" y="3.5" class="st72" width="0.4" height="181.2"/>
					<rect x="236.1" y="3.5" class="st61" width="0.4" height="181.2"/>
					<rect x="235.6" y="3.5" class="st60" width="0.4" height="181.2"/>
					<rect x="235.2" y="3.5" class="st59" width="0.4" height="181.2"/>
					<rect x="234.7" y="3.5" class="st58" width="0.4" height="181.2"/>
					<rect x="234.3" y="3.5" class="st57" width="0.4" height="181.2"/>
					<rect x="233.9" y="3.5" class="st73" width="0.4" height="181.2"/>
					<rect x="233.4" y="3.5" class="st74" width="0.4" height="181.2"/>
					<rect x="233" y="3.5" class="st75" width="0.4" height="181.2"/>
					<rect x="232.5" y="3.5" class="st53" width="0.4" height="181.2"/>
					<rect x="232.1" y="3.5" class="st52" width="0.4" height="181.2"/>
					<rect x="231.6" y="3.5" class="st51" width="0.4" height="181.2"/>
					<rect x="231.2" y="3.5" class="st50" width="0.4" height="181.2"/>
					<rect x="230.8" y="3.5" class="st76" width="0.4" height="181.2"/>
					<rect x="230.3" y="3.5" class="st77" width="0.4" height="181.2"/>
					<rect x="229.9" y="3.5" class="st78" width="0.4" height="181.2"/>
					<rect x="229.4" y="3.5" class="st79" width="0.4" height="181.2"/>
					<rect x="229" y="3.5" class="st80" width="0.4" height="181.2"/>
					<rect x="228.6" y="3.5" class="st81" width="0.4" height="181.2"/>
					<rect x="228.1" y="3.5" class="st82" width="0.4" height="181.2"/>
					<rect x="227.7" y="3.5" class="st83" width="0.4" height="181.2"/>
					<rect x="227.2" y="3.5" class="st84" width="0.4" height="181.2"/>
					<rect x="226.8" y="3.5" class="st85" width="0.4" height="181.2"/>
					<rect x="226.3" y="3.5" class="st40" width="0.4" height="181.2"/>
					<rect x="225.9" y="3.5" class="st39" width="0.4" height="181.2"/>
					<rect x="225.5" y="3.5" class="st38" width="0.4" height="181.2"/>
					<rect x="225" y="3.5" class="st37" width="0.4" height="181.2"/>
					<rect x="224.6" y="3.5" class="st36" width="0.4" height="181.2"/>
					<rect x="224.1" y="3.5" class="st35" width="0.4" height="181.2"/>
					<rect x="223.7" y="3.5" class="st86" width="0.4" height="181.2"/>
					<rect x="223.3" y="3.5" class="st87" width="0.4" height="181.2"/>
					<rect x="222.8" y="3.5" class="st88" width="0.4" height="181.2"/>
					<rect x="222.4" y="3.5" class="st30" width="0.4" height="181.2"/>
					<rect x="221.9" y="3.5" class="st29" width="0.4" height="181.2"/>
					<rect x="221.5" y="3.5" class="st28" width="0.4" height="181.2"/>
					<rect x="221.1" y="3.5" class="st27" width="0.4" height="181.2"/>
					<rect x="220.6" y="3.5" class="st26" width="0.4" height="181.2"/>
					<rect x="220.2" y="3.5" class="st25" width="0.4" height="181.2"/>
					<rect x="219.7" y="3.5" class="st24" width="0.4" height="181.2"/>
					<rect x="219.3" y="3.5" class="st23" width="0.4" height="181.2"/>
					<rect x="218.8" y="3.5" class="st22" width="0.4" height="181.2"/>
					<rect x="218.4" y="3.5" class="st21" width="0.4" height="181.2"/>
					<rect x="218" y="3.5" class="st89" width="0.4" height="181.2"/>
					<rect x="217.5" y="3.5" class="st19" width="0.4" height="181.2"/>
					<rect x="217.1" y="3.5" class="st90" width="0.4" height="181.2"/>
					<rect x="216.6" y="3.5" class="st91" width="0.4" height="181.2"/>
					<rect x="216.2" y="3.5" class="st92" width="0.4" height="181.2"/>
					<rect x="215.8" y="3.5" class="st93" width="0.4" height="181.2"/>
					<rect x="215.3" y="3.5" class="st14" width="0.4" height="181.2"/>
					<rect x="214.9" y="3.5" class="st13" width="0.4" height="181.2"/>
					<rect x="214.4" y="3.5" class="st12" width="0.4" height="181.2"/>
					<rect x="214" y="3.5" class="st11" width="0.4" height="181.2"/>
					<rect x="213.5" y="3.5" class="st94" width="0.4" height="181.2"/>
					<rect x="213.1" y="3.5" class="st8" width="0.4" height="181.2"/>
					<rect x="212.7" y="3.5" class="st7" width="0.4" height="181.2"/>
					<rect x="212.2" y="3.5" class="st6" width="0.4" height="181.2"/>
					<rect x="211.8" y="3.5" class="st5" width="0.4" height="181.2"/>
					<rect x="211.3" y="3.5" class="st4" width="0.4" height="181.2"/>
					<rect x="211.1" y="3.5" class="st4" width="0.2" height="181.2"/>
					<rect x="210.9" y="3.5" class="st5" width="0.2" height="181.2"/>
					<rect x="210.7" y="3.5" class="st6" width="0.2" height="181.2"/>
					<rect x="210.4" y="3.5" class="st7" width="0.2" height="181.2"/>
					<rect x="210.2" y="3.5" class="st8" width="0.2" height="181.2"/>
					<rect x="210" y="3.5" class="st9" width="0.2" height="181.2"/>
					<rect x="209.8" y="3.5" class="st10" width="0.2" height="181.2"/>
					<rect x="209.5" y="3.5" class="st11" width="0.2" height="181.2"/>
					<rect x="209.3" y="3.5" class="st12" width="0.2" height="181.2"/>
					<rect x="209.1" y="3.5" class="st13" width="0.2" height="181.2"/>
					<rect x="208.8" y="3.5" class="st14" width="0.2" height="181.2"/>
					<rect x="208.6" y="3.5" class="st15" width="0.2" height="181.2"/>
					<rect x="208.4" y="3.5" class="st16" width="0.2" height="181.2"/>
					<rect x="208.2" y="3.5" class="st17" width="0.2" height="181.2"/>
					<rect x="207.9" y="3.5" class="st18" width="0.2" height="181.2"/>
					<rect x="207.7" y="3.5" class="st19" width="0.2" height="181.2"/>
					<rect x="207.5" y="3.5" class="st20" width="0.2" height="181.2"/>
					<rect x="207.3" y="3.5" class="st21" width="0.2" height="181.2"/>
					<rect x="207" y="3.5" class="st22" width="0.2" height="181.2"/>
					<rect x="206.8" y="3.5" class="st23" width="0.2" height="181.2"/>
					<rect x="206.6" y="3.5" class="st24" width="0.2" height="181.2"/>
					<rect x="206.4" y="3.5" class="st25" width="0.2" height="181.2"/>
					<rect x="206.1" y="3.5" class="st26" width="0.2" height="181.2"/>
					<rect x="205.9" y="3.5" class="st27" width="0.2" height="181.2"/>
					<rect x="205.7" y="3.5" class="st28" width="0.2" height="181.2"/>
					<rect x="205.4" y="3.5" class="st29" width="0.2" height="181.2"/>
					<rect x="205.2" y="3.5" class="st30" width="0.2" height="181.2"/>
					<rect x="205" y="3.5" class="st31" width="0.2" height="181.2"/>
					<rect x="204.8" y="3.5" class="st32" width="0.2" height="181.2"/>
					<rect x="204.5" y="3.5" class="st33" width="0.2" height="181.2"/>
					<rect x="204.3" y="3.5" class="st34" width="0.2" height="181.2"/>
					<rect x="204.1" y="3.5" class="st35" width="0.2" height="181.2"/>
					<rect x="203.9" y="3.5" class="st36" width="0.2" height="181.2"/>
					<rect x="203.6" y="3.5" class="st37" width="0.2" height="181.2"/>
					<rect x="203.4" y="3.5" class="st38" width="0.2" height="181.2"/>
					<rect x="203.2" y="3.5" class="st39" width="0.2" height="181.2"/>
					<rect x="203" y="3.5" class="st40" width="0.2" height="181.2"/>
					<rect x="202.7" y="3.5" class="st41" width="0.2" height="181.2"/>
					<rect x="202.5" y="3.5" class="st42" width="0.2" height="181.2"/>
					<rect x="202.3" y="3.5" class="st43" width="0.2" height="181.2"/>
					<rect x="202.1" y="3.5" class="st44" width="0.2" height="181.2"/>
					<rect x="201.8" y="3.5" class="st45" width="0.2" height="181.2"/>
					<rect x="201.6" y="3.5" class="st46" width="0.2" height="181.2"/>
					<rect x="201.4" y="3.5" class="st47" width="0.2" height="181.2"/>
					<rect x="201.1" y="3.5" class="st48" width="0.2" height="181.2"/>
					<rect x="200.9" y="3.5" class="st49" width="0.2" height="181.2"/>
					<rect x="200.7" y="3.5" class="st50" width="0.2" height="181.2"/>
					<rect x="200.5" y="3.5" class="st51" width="0.2" height="181.2"/>
					<rect x="200.2" y="3.5" class="st52" width="0.2" height="181.2"/>
					<rect x="200" y="3.5" class="st53" width="0.2" height="181.2"/>
					<rect x="199.8" y="3.5" class="st54" width="0.2" height="181.2"/>
					<rect x="199.6" y="3.5" class="st55" width="0.2" height="181.2"/>
					<rect x="199.3" y="3.5" class="st56" width="0.2" height="181.2"/>
					<rect x="199.1" y="3.5" class="st57" width="0.2" height="181.2"/>
					<rect x="198.9" y="3.5" class="st58" width="0.2" height="181.2"/>
					<rect x="198.7" y="3.5" class="st59" width="0.2" height="181.2"/>
					<rect x="198.4" y="3.5" class="st60" width="0.2" height="181.2"/>
					<rect x="198.2" y="3.5" class="st61" width="0.2" height="181.2"/>
					<rect x="198" y="3.5" class="st61" width="0.2" height="181.2"/>
					<rect x="197.8" y="3.5" class="st62" width="0.2" height="181.2"/>
					<rect x="197.5" y="3.5" class="st63" width="0.2" height="181.2"/>
					<rect x="197.3" y="3.5" class="st64" width="0.2" height="181.2"/>
					<rect x="197.1" y="3.5" class="st65" width="0.2" height="181.2"/>
					<rect x="196.8" y="3.5" class="st66" width="0.2" height="181.2"/>
					<rect x="196.6" y="3.5" class="st67" width="0.2" height="181.2"/>
					<rect x="196.4" y="3.5" class="st68" width="0.2" height="181.2"/>
					<rect x="196.2" y="3.5" class="st69" width="0.2" height="181.2"/>
					<rect x="195.9" y="3.5" class="st69" width="0.3" height="181.2"/>
				</g>
			</g>
		</g>
		<g>
			<defs>
				<path id="SVGID_5_" d="M130.1,4.1c19.2,52.9,38.4,105.8,57.7,159.1c0.4-0.6,0.6-0.7,0.7-1c1-2.4,2-4.9,2.9-7.3
					c1.2-2.9,2.3-5.8,3.5-8.7c1.2-3,2.5-5.9,3.7-8.9c1.5-3.7,2.9-7.5,4.4-11.2c2-5,4.1-10.1,6.2-15.1c2.5-6.1,4.9-12.1,7.3-18.2
					c1.2-3,2.5-6.1,3.8-9.1c0.3-0.7,0.5-1.3-0.2-1.9c-3-2.5-6-5.1-9-7.7c-4.6-4-9.2-8.1-13.8-12.1c-3.2-2.7-6.4-5.4-9.5-8.2
					c-3.6-3.1-7.1-6.3-10.7-9.4c-3-2.6-6.1-5.3-9.1-7.9c-2.9-2.5-5.7-4.9-8.6-7.4c-2.2-1.9-4.3-3.7-6.4-5.6
					c-2.1-1.9-4.3-3.7-6.4-5.6c-1.8-1.6-3.5-3.2-5.4-4.8c-2.6-2.3-5.3-4.6-8-6.9c-0.9-0.8-1.9-1.5-2.8-2.2
					C130.3,4,130.2,4.1,130.1,4.1"/>
			</defs>
			<clipPath id="SVGID_6_">
				<use xlink:href="#SVGID_5_"  style="overflow:visible;"/>
			</clipPath>
			<g class="st95">
				<g>
					<defs>
						<rect id="SVGID_7_" x="130.1" y="4" width="90.7" height="159.3"/>
					</defs>
					<clipPath id="SVGID_8_">
						<use xlink:href="#SVGID_7_"  style="overflow:visible;"/>
					</clipPath>
					<rect x="220.5" y="4" class="st96" width="0.2" height="159.3"/>
					<rect x="195.1" y="4" class="st96" width="25.4" height="159.3"/>
					<rect x="194.6" y="4" class="st96" width="0.5" height="159.3"/>
					<rect x="194.1" y="4" class="st97" width="0.5" height="159.3"/>
					<rect x="193.6" y="4" class="st98" width="0.5" height="159.3"/>
					<rect x="193" y="4" class="st99" width="0.5" height="159.3"/>
					<rect x="192.5" y="4" class="st100" width="0.5" height="159.3"/>
					<rect x="192" y="4" class="st101" width="0.5" height="159.3"/>
					<rect x="191.5" y="4" class="st102" width="0.5" height="159.3"/>
					<rect x="190.9" y="4" class="st103" width="0.5" height="159.3"/>
					<rect x="190.4" y="4" class="st104" width="0.5" height="159.3"/>
					<rect x="189.9" y="4" class="st105" width="0.5" height="159.3"/>
					<rect x="189.4" y="4" class="st106" width="0.5" height="159.3"/>
					<rect x="188.8" y="4" class="st107" width="0.5" height="159.3"/>
					<rect x="188.3" y="4" class="st108" width="0.5" height="159.3"/>
					<rect x="187.8" y="4" class="st109" width="0.5" height="159.3"/>
					<rect x="187.3" y="4" class="st110" width="0.5" height="159.3"/>
					<rect x="186.7" y="4" class="st111" width="0.5" height="159.3"/>
					<rect x="186.2" y="4" class="st112" width="0.5" height="159.3"/>
					<rect x="185.7" y="4" class="st113" width="0.5" height="159.3"/>
					<rect x="185.2" y="4" class="st114" width="0.5" height="159.3"/>
					<rect x="184.7" y="4" class="st115" width="0.5" height="159.3"/>
					<rect x="184.1" y="4" class="st116" width="0.5" height="159.3"/>
					<rect x="183.6" y="4" class="st117" width="0.5" height="159.3"/>
					<rect x="183.1" y="4" class="st118" width="0.5" height="159.3"/>
					<rect x="182.6" y="4" class="st119" width="0.5" height="159.3"/>
					<rect x="182" y="4" class="st120" width="0.5" height="159.3"/>
					<rect x="181.5" y="4" class="st121" width="0.5" height="159.3"/>
					<rect x="181" y="4" class="st122" width="0.5" height="159.3"/>
					<rect x="180.5" y="4" class="st123" width="0.5" height="159.3"/>
					<rect x="179.9" y="4" class="st124" width="0.5" height="159.3"/>
					<rect x="179.4" y="4" class="st125" width="0.5" height="159.3"/>
					<rect x="178.9" y="4" class="st126" width="0.5" height="159.3"/>
					<rect x="178.4" y="4" class="st127" width="0.5" height="159.3"/>
					<rect x="177.8" y="4" class="st128" width="0.5" height="159.3"/>
					<rect x="177.3" y="4" class="st129" width="0.5" height="159.3"/>
					<rect x="176.8" y="4" class="st130" width="0.5" height="159.3"/>
					<rect x="176.3" y="4" class="st131" width="0.5" height="159.3"/>
					<rect x="175.8" y="4" class="st132" width="0.5" height="159.3"/>
					<rect x="175.2" y="4" class="st133" width="0.5" height="159.3"/>
					<rect x="174.7" y="4" class="st134" width="0.5" height="159.3"/>
					<rect x="174.2" y="4" class="st135" width="0.5" height="159.3"/>
					<rect x="173.7" y="4" class="st136" width="0.5" height="159.3"/>
					<rect x="173.1" y="4" class="st137" width="0.5" height="159.3"/>
					<rect x="172.6" y="4" class="st138" width="0.5" height="159.3"/>
					<rect x="172.1" y="4" class="st139" width="0.5" height="159.3"/>
					<rect x="171.6" y="4" class="st140" width="0.5" height="159.3"/>
					<rect x="171" y="4" class="st141" width="0.5" height="159.3"/>
					<rect x="170.5" y="4" class="st142" width="0.5" height="159.3"/>
					<rect x="170" y="4" class="st143" width="0.5" height="159.3"/>
					<rect x="169.5" y="4" class="st144" width="0.5" height="159.3"/>
					<rect x="168.9" y="4" class="st145" width="0.5" height="159.3"/>
					<rect x="168.4" y="4" class="st146" width="0.5" height="159.3"/>
					<rect x="167.9" y="4" class="st147" width="0.5" height="159.3"/>
					<rect x="167.4" y="4" class="st148" width="0.5" height="159.3"/>
					<rect x="166.9" y="4" class="st149" width="0.5" height="159.3"/>
					<rect x="166.3" y="4" class="st150" width="0.5" height="159.3"/>
					<rect x="165.8" y="4" class="st151" width="0.5" height="159.3"/>
					<rect x="165.3" y="4" class="st152" width="0.5" height="159.3"/>
					<rect x="164.8" y="4" class="st153" width="0.5" height="159.3"/>
					<rect x="164.2" y="4" class="st153" width="0.5" height="159.3"/>
					<rect x="163.7" y="4" class="st154" width="0.5" height="159.3"/>
					<rect x="163.2" y="4" class="st155" width="0.5" height="159.3"/>
					<rect x="162.7" y="4" class="st156" width="0.5" height="159.3"/>
					<rect x="162.1" y="4" class="st157" width="0.5" height="159.3"/>
					<rect x="161.6" y="4" class="st158" width="0.5" height="159.3"/>
					<rect x="161.1" y="4" class="st159" width="0.5" height="159.3"/>
					<rect x="160.6" y="4" class="st160" width="0.5" height="159.3"/>
					<rect x="160" y="4" class="st161" width="0.5" height="159.3"/>
					<rect x="159.8" y="4" class="st161" width="0.3" height="159.3"/>
					<rect x="159.5" y="4" class="st160" width="0.3" height="159.3"/>
					<rect x="159.2" y="4" class="st160" width="0.3" height="159.3"/>
					<rect x="158.9" y="4" class="st159" width="0.3" height="159.3"/>
					<rect x="158.6" y="4" class="st162" width="0.3" height="159.3"/>
					<rect x="158.3" y="4" class="st157" width="0.3" height="159.3"/>
					<rect x="158" y="4" class="st156" width="0.3" height="159.3"/>
					<rect x="157.7" y="4" class="st155" width="0.3" height="159.3"/>
					<rect x="157.4" y="4" class="st163" width="0.3" height="159.3"/>
					<rect x="157.1" y="4" class="st164" width="0.3" height="159.3"/>
					<rect x="156.8" y="4" class="st153" width="0.3" height="159.3"/>
					<rect x="156.5" y="4" class="st152" width="0.3" height="159.3"/>
					<rect x="156.2" y="4" class="st151" width="0.3" height="159.3"/>
					<rect x="155.9" y="4" class="st150" width="0.3" height="159.3"/>
					<rect x="155.6" y="4" class="st149" width="0.3" height="159.3"/>
					<rect x="155.3" y="4" class="st165" width="0.3" height="159.3"/>
					<rect x="155" y="4" class="st166" width="0.3" height="159.3"/>
					<rect x="154.7" y="4" class="st167" width="0.3" height="159.3"/>
					<rect x="154.4" y="4" class="st145" width="0.3" height="159.3"/>
					<rect x="154.1" y="4" class="st144" width="0.3" height="159.3"/>
					<rect x="153.8" y="4" class="st143" width="0.3" height="159.3"/>
					<rect x="153.5" y="4" class="st142" width="0.3" height="159.3"/>
					<rect x="153.2" y="4" class="st168" width="0.3" height="159.3"/>
					<rect x="152.9" y="4" class="st169" width="0.3" height="159.3"/>
					<rect x="152.7" y="4" class="st170" width="0.3" height="159.3"/>
					<rect x="152.4" y="4" class="st171" width="0.3" height="159.3"/>
					<rect x="152.1" y="4" class="st172" width="0.3" height="159.3"/>
					<rect x="151.8" y="4" class="st173" width="0.3" height="159.3"/>
					<rect x="151.5" y="4" class="st174" width="0.3" height="159.3"/>
					<rect x="151.2" y="4" class="st175" width="0.3" height="159.3"/>
					<rect x="150.9" y="4" class="st176" width="0.3" height="159.3"/>
					<rect x="150.6" y="4" class="st177" width="0.3" height="159.3"/>
					<rect x="150.3" y="4" class="st132" width="0.3" height="159.3"/>
					<rect x="150" y="4" class="st131" width="0.3" height="159.3"/>
					<rect x="149.7" y="4" class="st130" width="0.3" height="159.3"/>
					<rect x="149.4" y="4" class="st129" width="0.3" height="159.3"/>
					<rect x="149.1" y="4" class="st128" width="0.3" height="159.3"/>
					<rect x="148.8" y="4" class="st127" width="0.3" height="159.3"/>
					<rect x="148.5" y="4" class="st178" width="0.3" height="159.3"/>
					<rect x="148.2" y="4" class="st179" width="0.3" height="159.3"/>
					<rect x="147.9" y="4" class="st180" width="0.3" height="159.3"/>
					<rect x="147.6" y="4" class="st122" width="0.3" height="159.3"/>
					<rect x="147.3" y="4" class="st121" width="0.3" height="159.3"/>
					<rect x="147" y="4" class="st120" width="0.3" height="159.3"/>
					<rect x="146.7" y="4" class="st119" width="0.3" height="159.3"/>
					<rect x="146.4" y="4" class="st118" width="0.3" height="159.3"/>
					<rect x="146.1" y="4" class="st117" width="0.3" height="159.3"/>
					<rect x="145.8" y="4" class="st116" width="0.3" height="159.3"/>
					<rect x="145.5" y="4" class="st115" width="0.3" height="159.3"/>
					<rect x="145.3" y="4" class="st114" width="0.3" height="159.3"/>
					<rect x="145" y="4" class="st113" width="0.3" height="159.3"/>
					<rect x="144.7" y="4" class="st181" width="0.3" height="159.3"/>
					<rect x="144.4" y="4" class="st111" width="0.3" height="159.3"/>
					<rect x="144.1" y="4" class="st182" width="0.3" height="159.3"/>
					<rect x="143.8" y="4" class="st183" width="0.3" height="159.3"/>
					<rect x="143.5" y="4" class="st184" width="0.3" height="159.3"/>
					<rect x="143.2" y="4" class="st185" width="0.3" height="159.3"/>
					<rect x="142.9" y="4" class="st106" width="0.3" height="159.3"/>
					<rect x="142.6" y="4" class="st105" width="0.3" height="159.3"/>
					<rect x="142.3" y="4" class="st104" width="0.3" height="159.3"/>
					<rect x="142" y="4" class="st103" width="0.3" height="159.3"/>
					<rect x="141.7" y="4" class="st186" width="0.3" height="159.3"/>
					<rect x="141.4" y="4" class="st100" width="0.3" height="159.3"/>
					<rect x="141.1" y="4" class="st99" width="0.3" height="159.3"/>
					<rect x="140.8" y="4" class="st98" width="0.3" height="159.3"/>
					<rect x="140.5" y="4" class="st97" width="0.3" height="159.3"/>
					<rect x="140.2" y="4" class="st96" width="0.3" height="159.3"/>
					<rect x="140.1" y="4" class="st96" width="0.2" height="159.3"/>
					<rect x="139.9" y="4" class="st97" width="0.2" height="159.3"/>
					<rect x="139.8" y="4" class="st98" width="0.2" height="159.3"/>
					<rect x="139.6" y="4" class="st99" width="0.2" height="159.3"/>
					<rect x="139.5" y="4" class="st100" width="0.2" height="159.3"/>
					<rect x="139.3" y="4" class="st101" width="0.2" height="159.3"/>
					<rect x="139.2" y="4" class="st102" width="0.2" height="159.3"/>
					<rect x="139" y="4" class="st103" width="0.2" height="159.3"/>
					<rect x="138.9" y="4" class="st104" width="0.2" height="159.3"/>
					<rect x="138.7" y="4" class="st105" width="0.2" height="159.3"/>
					<rect x="138.6" y="4" class="st106" width="0.2" height="159.3"/>
					<rect x="138.4" y="4" class="st107" width="0.2" height="159.3"/>
					<rect x="138.3" y="4" class="st108" width="0.2" height="159.3"/>
					<rect x="138.1" y="4" class="st109" width="0.2" height="159.3"/>
					<rect x="137.9" y="4" class="st110" width="0.2" height="159.3"/>
					<rect x="137.8" y="4" class="st111" width="0.2" height="159.3"/>
					<rect x="137.6" y="4" class="st112" width="0.2" height="159.3"/>
					<rect x="137.5" y="4" class="st113" width="0.2" height="159.3"/>
					<rect x="137.3" y="4" class="st114" width="0.2" height="159.3"/>
					<rect x="137.2" y="4" class="st115" width="0.2" height="159.3"/>
					<rect x="137" y="4" class="st116" width="0.2" height="159.3"/>
					<rect x="136.9" y="4" class="st117" width="0.2" height="159.3"/>
					<rect x="136.7" y="4" class="st118" width="0.2" height="159.3"/>
					<rect x="136.6" y="4" class="st119" width="0.2" height="159.3"/>
					<rect x="136.4" y="4" class="st120" width="0.2" height="159.3"/>
					<rect x="136.3" y="4" class="st121" width="0.2" height="159.3"/>
					<rect x="136.1" y="4" class="st122" width="0.2" height="159.3"/>
					<rect x="136" y="4" class="st123" width="0.2" height="159.3"/>
					<rect x="135.8" y="4" class="st124" width="0.2" height="159.3"/>
					<rect x="135.7" y="4" class="st125" width="0.2" height="159.3"/>
					<rect x="135.5" y="4" class="st126" width="0.2" height="159.3"/>
					<rect x="135.4" y="4" class="st127" width="0.2" height="159.3"/>
					<rect x="135.2" y="4" class="st128" width="0.2" height="159.3"/>
					<rect x="135.1" y="4" class="st129" width="0.2" height="159.3"/>
					<rect x="134.9" y="4" class="st130" width="0.2" height="159.3"/>
					<rect x="134.8" y="4" class="st131" width="0.2" height="159.3"/>
					<rect x="134.6" y="4" class="st132" width="0.2" height="159.3"/>
					<rect x="134.5" y="4" class="st133" width="0.2" height="159.3"/>
					<rect x="134.3" y="4" class="st134" width="0.2" height="159.3"/>
					<rect x="134.2" y="4" class="st135" width="0.2" height="159.3"/>
					<rect x="134" y="4" class="st136" width="0.2" height="159.3"/>
					<rect x="133.8" y="4" class="st137" width="0.2" height="159.3"/>
					<rect x="133.7" y="4" class="st138" width="0.2" height="159.3"/>
					<rect x="133.5" y="4" class="st139" width="0.2" height="159.3"/>
					<rect x="133.4" y="4" class="st140" width="0.2" height="159.3"/>
					<rect x="133.2" y="4" class="st141" width="0.2" height="159.3"/>
					<rect x="133.1" y="4" class="st142" width="0.2" height="159.3"/>
					<rect x="132.9" y="4" class="st143" width="0.2" height="159.3"/>
					<rect x="132.8" y="4" class="st144" width="0.2" height="159.3"/>
					<rect x="132.6" y="4" class="st145" width="0.2" height="159.3"/>
					<rect x="132.5" y="4" class="st146" width="0.2" height="159.3"/>
					<rect x="132.3" y="4" class="st147" width="0.2" height="159.3"/>
					<rect x="132.2" y="4" class="st148" width="0.2" height="159.3"/>
					<rect x="132" y="4" class="st149" width="0.2" height="159.3"/>
					<rect x="131.9" y="4" class="st150" width="0.2" height="159.3"/>
					<rect x="131.7" y="4" class="st151" width="0.2" height="159.3"/>
					<rect x="131.6" y="4" class="st152" width="0.2" height="159.3"/>
					<rect x="131.4" y="4" class="st153" width="0.2" height="159.3"/>
					<rect x="131.3" y="4" class="st153" width="0.2" height="159.3"/>
					<rect x="131.1" y="4" class="st154" width="0.2" height="159.3"/>
					<rect x="131" y="4" class="st155" width="0.2" height="159.3"/>
					<rect x="130.8" y="4" class="st156" width="0.2" height="159.3"/>
					<rect x="130.7" y="4" class="st157" width="0.2" height="159.3"/>
					<rect x="130.5" y="4" class="st158" width="0.2" height="159.3"/>
					<rect x="130.4" y="4" class="st159" width="0.2" height="159.3"/>
					<rect x="130.2" y="4" class="st160" width="0.2" height="159.3"/>
					<rect x="130.1" y="4" class="st161" width="0.2" height="159.3"/>
				</g>
			</g>
		</g>
	</g>
</g>
</svg>
