<?xml version="1.0" encoding="utf-8"?>
<!-- Generator: Adobe Illustrator 22.1.0, SVG Export Plug-In . SVG Version: 6.00 Build 0)  -->
<svg version="1.1" xmlns="http://www.w3.org/2000/svg" xmlns:xlink="http://www.w3.org/1999/xlink" x="0px" y="0px"
	 viewBox="0 0 463.3 346.3" style="enable-background:new 0 0 463.3 346.3;" xml:space="preserve">
<style type="text/css">
	.st0{display:none;}
	.st1{display:inline;}
	.st2{fill:#FFFFFF;}
	.st3{font-family:'GothamPro-Bold';}
	.st4{font-size:110.1887px;}
	.st5{clip-path:url(#SVGID_2_);fill:url(#SVGID_3_);}
	.st6{clip-path:url(#SVGID_5_);fill:url(#SVGID_6_);}
</style>
<g id="Layer_2" class="st0">
	<rect x="-247.1" y="-237.3" class="st1" width="1044" height="924"/>
</g>
<g id="OBJECTS">
	<g>
		<text transform="matrix(1 0 0 1 0 343.3468)" class="st2 st3 st4">VIVIGLE</text>
		<g>
			<defs>
				<path id="SVGID_1_" d="M329.1,2.2c-19.8,0.1-39.7,0.1-59.5,0.2c-0.8,0-1.1,0.2-1.4,1c-0.7,2-1.6,3.9-2.4,5.9
					c-3.5,8.5-6.9,16.9-10.4,25.4c-3.4,8.4-6.8,16.8-10.2,25.2c-2.8,6.8-5.5,13.7-8.3,20.5c-3.4,8.3-6.8,16.7-10.2,25
					c-3.4,8.4-6.8,16.8-10.2,25.2c-2,4.8-3.9,9.7-5.9,14.5c-3.3,8.2-6.6,16.5-9.9,24.7c-1.6,4-3.2,8-4.8,12
					c-0.6,1.6-0.5,1.8,1.1,1.8c4.2,0,8.4-0.1,12.6-0.1c15.4,0,30.8,0,46.3,0.1c1.2,0,1.5-0.4,1.9-1.4c2.3-5.9,4.8-11.7,7.2-17.6
					c3-7.4,6-14.8,9-22.1c2.6-6.4,5.2-12.9,7.8-19.3c3.3-8,6.5-16.1,9.7-24.1c2.4-5.8,4.7-11.6,7.1-17.4c2.2-5.5,4.4-10.9,6.6-16.4
					c2.2-5.5,4.4-10.9,6.6-16.4c2.8-6.8,5.5-13.7,8.3-20.5c2.7-6.6,5.4-13.2,8.1-19.8c0.8-1.9,1.5-3.8,2.4-6c-0.5,0-0.8,0-1.1,0
					C329.4,2.2,329.2,2.2,329.1,2.2"/>
			</defs>
			<clipPath id="SVGID_2_">
				<use xlink:href="#SVGID_1_"  style="overflow:visible;"/>
			</clipPath>
			
				<linearGradient id="SVGID_3_" gradientUnits="userSpaceOnUse" x1="-238.0052" y1="395.7759" x2="-235.4392" y2="395.7759" gradientTransform="matrix(-52.6198 0 0 52.6198 -12193.1504 -20732.8145)">
				<stop  offset="0" style="stop-color:#3DA936"/>
				<stop  offset="0.2809" style="stop-color:#3DA936"/>
				<stop  offset="0.6685" style="stop-color:#026634"/>
				<stop  offset="0.7648" style="stop-color:#1A8135"/>
				<stop  offset="0.8876" style="stop-color:#3DA936"/>
				<stop  offset="1" style="stop-color:#026634"/>
			</linearGradient>
			<rect x="195.3" y="2.2" class="st5" width="135.3" height="181.2"/>
		</g>
		<g>
			<defs>
				<path id="SVGID_4_" d="M129.5,2.8c19.2,52.9,38.4,105.8,57.7,159.1c0.4-0.6,0.6-0.7,0.7-1c1-2.4,2-4.9,2.9-7.3
					c1.2-2.9,2.3-5.8,3.5-8.7c1.2-3,2.5-5.9,3.7-8.9c1.5-3.7,2.9-7.5,4.4-11.2c2-5,4.1-10.1,6.2-15.1c2.5-6.1,4.9-12.1,7.3-18.2
					c1.2-3,2.5-6.1,3.8-9.1c0.3-0.7,0.5-1.3-0.2-1.9c-3-2.5-6-5.1-9-7.7c-4.6-4-9.2-8.1-13.8-12.1c-3.2-2.7-6.4-5.4-9.5-8.2
					c-3.6-3.1-7.1-6.3-10.7-9.4c-3-2.6-6.1-5.3-9.1-7.9c-2.9-2.5-5.7-4.9-8.6-7.4c-2.2-1.9-4.3-3.7-6.4-5.6
					c-2.1-1.9-4.3-3.7-6.4-5.6c-1.8-1.6-3.5-3.2-5.4-4.8c-2.6-2.3-5.3-4.6-8-6.9c-0.9-0.8-1.9-1.5-2.8-2.2
					C129.7,2.7,129.6,2.8,129.5,2.8"/>
			</defs>
			<clipPath id="SVGID_5_">
				<use xlink:href="#SVGID_4_"  style="overflow:visible;"/>
			</clipPath>
			
				<linearGradient id="SVGID_6_" gradientUnits="userSpaceOnUse" x1="-237.0486" y1="395.1546" x2="-234.4826" y2="395.1546" gradientTransform="matrix(-35.263 0 0 35.263 -8139.0576 -13852.0586)">
				<stop  offset="0" style="stop-color:#3DA936"/>
				<stop  offset="0.2809" style="stop-color:#3DA936"/>
				<stop  offset="0.6685" style="stop-color:#026634"/>
				<stop  offset="0.7648" style="stop-color:#1A8135"/>
				<stop  offset="0.8876" style="stop-color:#3DA936"/>
				<stop  offset="1" style="stop-color:#026634"/>
			</linearGradient>
			<rect x="129.5" y="2.6" class="st6" width="90.7" height="159.3"/>
		</g>
	</g>
</g>
</svg>
